<mxfile host="app.diagrams.net" modified="2024-04-23T01:06:14.528Z" agent="Mozilla/5.0 (Windows NT 10.0; Win64; x64) AppleWebKit/537.36 (KHTML, like Gecko) Chrome/123.0.0.0 Safari/537.36 Edg/123.0.0.0" version="24.2.8" etag="83fNWrO4TQa-1vX6Z4ZL" type="github">
  <diagram name="Page-1" id="Cm4C9Hc3hM0Q11Y29d3r">
    <mxGraphModel>
      <root>
        <mxCell id="0" />
        <mxCell id="1" parent="0" />
      </root>
    </mxGraphModel>
  </diagram>
</mxfile>
